<?xml version="1.0" standalone="no"?><!DOCTYPE svg PUBLIC "-//W3C//DTD SVG 1.1//EN" "http://www.w3.org/Graphics/SVG/1.1/DTD/svg11.dtd"><svg class="icon" height="512" viewBox="0 0 1024 1024" version="1.1" xmlns="http://www.w3.org/2000/svg"><path d="M848.736 399.52c72.096 100.4 49.152 313.856-113.824 433.216-54.272 39.792-121.696 71.984-209.984 78.16-140.672 9.856-242.272-48.16-307.712-111.904-87.488-85.168-123.68-195.264-121.088-297.6 2.432-90.48 35.664-174.72 84.112-235.488 93.552-117.472 215.104-152.896 318.976-153.888 97.888-0.944 175.808 40.56 205.424 58.976 8.384 5.232 35.632 25.216 35.632 25.216S654.144 140.704 530.72 140.96c-56.112 0.096-124.752 11.04-187.904 45.104-117.296 63.44-163.248 174.432-163.248 174.432s47.136-98.64 171.168-144.24c107.792-39.648 208.128-7.04 208.128-7.04s-111.808-14.784-217.616 50.224c-97.12 59.664-171.232 167.632-168.64 299.2 2.4 123.872 81.248 193.648 81.248 193.648s-75.648-110.352-50.8-235.952c10.336-52.192 32.128-92.848 57.552-123.68 42.4-51.392 91.76-70.88 91.76-70.88s-52.32 35.072-82.544 104.336c-23.216 53.056-36.176 130.528-10.016 204.832 25.216 71.648 98.368 141.36 207.856 144.992 163.04 5.328 227.12-113.776 227.12-113.776s-51.184 52.688-166.528 58.24c-153.296 7.296-207.984-102.48-174.4-179.2 18.848-42.848 54.896-66.768 91.696-77.952 76.32-23.424 150.112 6.352 150.112 6.352s-32.528-2.4-65.056 16.272c-39.152 22.448-54.096 59.632-41.424 88.928 21.952 50.4 111.6 58.144 183.2 11.952 44.656-28.832 90.528-91.136 55.088-164.528-56.352-116.8-247.776-75.168-247.776-75.168s58.288-26.352 137.92-33.248c84.288-6.624 175.936 8.848 231.104 85.728zM524.48 320.384s49.968-44.592 118.288-61.472c54.24-13.536 112-14.8 175.12-3.776 69.28 12.192 116.288 34.912 116.288 34.912s-67.792 36.528-178.736 10.56c-133.12-31.136-230.96 19.776-230.96 19.776z" /></svg>